<svg width="21" height="25" viewBox="0 0 21 25" fill="none" xmlns="http://www.w3.org/2000/svg">
<path d="M14.6631 16.6651C14.6631 17.2412 14.1943 17.7051 13.623 17.7051H11.5381V19.7901C11.5381 20.3662 11.0693 20.8301 10.498 20.8301C9.92188 20.8301 9.45801 20.3614 9.45801 19.7901V17.7051H7.37305C6.79687 17.7051 6.33301 17.2364 6.33301 16.6651C6.33301 16.0938 6.79687 15.625 7.37305 15.625H9.45801V13.5401C9.45801 12.9639 9.92676 12.5 10.498 12.5C11.0742 12.5 11.5381 12.9688 11.5381 13.5401V15.625H13.623C14.1992 15.625 14.6631 16.0938 14.6631 16.6651ZM20.9131 10.9229V19.7949C20.9082 22.6709 18.5791 25 15.7031 25.0049H5.28809C2.41211 25 0.0830078 22.6709 0.078125 19.7949V5.20998C0.0830078 2.33401 2.41699 0.004906 5.28809 2.31832e-05H9.99023C11.9238 -0.00485963 13.7793 0.761742 15.1465 2.13381L18.7744 5.76662C20.1514 7.12893 20.918 8.98928 20.9131 10.9229ZM13.6768 3.60842C13.3496 3.29104 12.9785 3.0176 12.583 2.79787V7.29494C12.583 7.87112 13.0518 8.33498 13.623 8.33498H18.1201C17.9004 7.93459 17.627 7.56838 17.3047 7.24123L13.6768 3.60842ZM18.833 10.9229C18.833 10.752 18.7988 10.586 18.7842 10.4199H13.623C11.8994 10.4199 10.498 9.01858 10.498 7.29494V2.13381C10.3271 2.11916 10.166 2.08498 9.99512 2.08498H5.29297C3.56934 2.08498 2.16797 3.48635 2.16797 5.20998V19.7949C2.16797 21.5186 3.56934 22.9199 5.29297 22.9199H15.708C17.4316 22.9199 18.833 21.5186 18.833 19.7949V10.9229Z" fill="#535353"/>
</svg>
