<svg width="21" height="25" viewBox="0 0 21 25" fill="none" xmlns="http://www.w3.org/2000/svg">
<path d="M16.564 0H4.41822C2.02242 0 0.078125 2.33398 0.078125 5.20996V19.7949C0.078125 22.666 2.02242 25 4.41822 25H16.568C18.9638 25 20.9081 22.666 20.9081 19.79V5.20996C20.9041 2.33398 18.9598 0 16.564 0ZM19.1672 19.79C19.1672 21.5088 17.9957 22.915 16.564 22.915H4.41822C2.98643 22.915 1.81498 21.5088 1.81498 19.79V5.20996C1.81498 3.49121 2.98643 2.08496 4.41822 2.08496H16.568C17.9998 2.08496 19.1713 3.49121 19.1713 5.20996V19.79H19.1672ZM4.41822 10.415C4.41822 9.84375 4.8087 9.375 5.28461 9.375H13.0943C13.5702 9.375 13.9607 9.84375 13.9607 10.415C13.9607 10.9863 13.5702 11.4551 13.0943 11.4551H5.28461C4.8087 11.46 4.41822 10.9912 4.41822 10.415ZM4.41822 6.25C4.41822 5.67871 4.8087 5.20996 5.28461 5.20996H10.4911C10.967 5.20996 11.3575 5.67871 11.3575 6.25C11.3575 6.82129 10.967 7.29004 10.4911 7.29004H5.28461C4.8087 7.29004 4.41822 6.82129 4.41822 6.25ZM16.564 14.585C16.564 15.1563 16.1735 15.625 15.6976 15.625H5.28461C4.8087 15.625 4.41822 15.1563 4.41822 14.585C4.41822 14.0137 4.8087 13.5449 5.28461 13.5449H15.6976C16.1735 13.54 16.564 14.0088 16.564 14.585ZM8.75424 18.75C8.75424 19.3213 8.36376 19.79 7.88785 19.79H5.28461C4.8087 19.79 4.41822 19.3213 4.41822 18.75C4.41822 18.1787 4.8087 17.71 5.28461 17.71H7.88785C8.36376 17.71 8.75424 18.1787 8.75424 18.75Z" fill="#535353"/>
</svg>
