<svg width="21" height="25" viewBox="0 0 21 25" fill="none" xmlns="http://www.w3.org/2000/svg">
<path d="M15.708 14.585C15.708 15.1612 15.2393 15.625 14.668 15.625H6.33301C5.75684 15.625 5.29297 15.1563 5.29297 14.585C5.29297 14.0088 5.76172 13.5449 6.33301 13.5449H14.668C15.2393 13.5401 15.708 14.0088 15.708 14.585ZM11.5381 17.71H6.33301C5.75684 17.71 5.29297 18.1787 5.29297 18.75C5.29297 19.3262 5.76172 19.7901 6.33301 19.7901H11.543C12.1191 19.7901 12.583 19.3213 12.583 18.75C12.583 18.1739 12.1143 17.71 11.5381 17.71ZM20.9131 10.9229V19.7949C20.9082 22.6709 18.5791 25 15.7031 25.0049H5.28809C2.41211 25 0.0830078 22.6709 0.078125 19.7949V5.20998C0.0830078 2.33401 2.41699 0.004906 5.28809 2.31832e-05H9.99023C11.9238 -0.00485963 13.7793 0.761742 15.1465 2.13381L18.7744 5.76662C20.1514 7.12893 20.918 8.98928 20.9131 10.9229ZM13.6768 3.60842C13.3496 3.29104 12.9785 3.0176 12.583 2.79787V7.29495C12.583 7.87112 13.0518 8.33498 13.623 8.33498H18.1201C17.9004 7.93459 17.627 7.56838 17.3047 7.24123L13.6768 3.60842ZM18.833 10.9229C18.833 10.752 18.7988 10.586 18.7842 10.4199H13.623C11.8994 10.4199 10.498 9.01858 10.498 7.29495V2.13381C10.3271 2.11916 10.166 2.08498 9.99512 2.08498H5.29297C3.56934 2.08498 2.16797 3.48635 2.16797 5.20998V19.7949C2.16797 21.5186 3.56934 22.9199 5.29297 22.9199H15.708C17.4316 22.9199 18.833 21.5186 18.833 19.7949V10.9229Z" fill="#535353"/>
</svg>
