<svg width="25" height="25" viewBox="0 0 25 25" fill="none" xmlns="http://www.w3.org/2000/svg">
<path d="M22.9692 4.83075L15.2901 0.840791C13.601 -0.260438 11.497 -0.281718 9.78837 0.787592L2.02633 4.83075C1.99704 4.84671 1.96775 4.86267 1.93846 4.88395C0.0931428 6.02774 -0.546371 8.58663 0.508094 10.5976C0.864464 11.2785 1.3917 11.8371 2.02633 12.2095L4.16943 13.3214V18.8807C4.16943 21.3651 5.65349 23.5623 7.83565 24.3018C9.35389 24.7806 10.9258 25.0146 12.5026 24.9987C14.0795 25.0199 15.6514 24.7859 17.1696 24.3124C19.3469 23.5729 20.831 21.3758 20.8358 18.8914V13.3161L22.9204 12.2308V21.5939C22.9204 22.2217 23.389 22.7271 23.9602 22.7271C24.5314 22.7271 25 22.2163 25 21.5939V7.97484C25 6.63953 24.0383 5.41063 22.9692 4.83075ZM18.7464 18.886C18.7464 20.3756 17.8628 21.6897 16.5594 22.1365C15.2413 22.5462 13.8695 22.7483 12.4978 22.7271C11.126 22.743 9.75419 22.5462 8.43611 22.1365C7.13267 21.6897 6.24907 20.3756 6.24907 18.886V14.4013L9.70537 16.1942C10.5597 16.7474 11.5312 17.0347 12.5222 17.0347C13.4643 17.04 14.3919 16.7687 15.2071 16.2474L18.7513 14.4013V18.886H18.7464ZM22.0807 10.156L14.2259 14.2417C13.1324 14.9386 11.7753 14.9174 10.6964 14.1885L3.00757 10.2092C2.15326 9.70382 1.83106 8.53875 2.29483 7.60776C2.45104 7.29389 2.68537 7.02789 2.96851 6.85233L10.7745 2.78789C11.868 2.0963 13.2251 2.11226 14.304 2.84109L21.9831 6.82573C22.5493 7.16621 22.9008 7.81524 22.9106 8.51747C22.9155 9.18247 22.5982 9.8049 22.0807 10.156Z" fill="#535353"/>
</svg>
